REM DIRINDEX 1\6,1\2\7,1\2\8,1\2\9,1\3\10,1\3\11,1\4\12,1\4\13,1\4\14,1\5\15,1\5\16,1\5\17
REM DIRNAME cjc041,folder01,folder02,folder03,folder04,folder05,folder06,folder07,folder08,folder09,folder10,folder11,folder12,folder13,folder14,folder15,folder16
TITLE ""
FILE "3Q_j_1165-1180.mp3" MP3
  TRACK 01 AUDIO
    TITLE "12:cjc041_0795"
    INDEX 01 00:00:00
  TRACK 02 AUDIO
    TITLE "0:"
    INDEX 01 00:01:38
  TRACK 03 AUDIO
    TITLE "13:cjc041_0796"
    INDEX 01 00:02:20
  TRACK 04 AUDIO
    TITLE "0:"
    INDEX 01 00:03:31
  TRACK 05 AUDIO
    TITLE "14:cjc041_0797"
    INDEX 01 00:04:09
  TRACK 06 AUDIO
    TITLE "0:"
    INDEX 01 00:09:18
  TRACK 07 AUDIO
    TITLE "12:cjc041_0798"
    INDEX 01 00:10:00
  TRACK 08 AUDIO
    TITLE "0:"
    INDEX 01 00:11:44
  TRACK 09 AUDIO
    TITLE "13:cjc041_0799"
    INDEX 01 00:12:20
  TRACK 10 AUDIO
    TITLE "0:"
    INDEX 01 00:14:15
  TRACK 11 AUDIO
    TITLE "14:cjc041_0800"
    INDEX 01 00:14:64
  TRACK 12 AUDIO
    TITLE "0:"
    INDEX 01 00:17:59
  TRACK 13 AUDIO
    TITLE "12:cjc041_0801"
    INDEX 01 00:18:42
  TRACK 14 AUDIO
    TITLE "0:"
    INDEX 01 00:20:28
  TRACK 15 AUDIO
    TITLE "13:cjc041_0802"
    INDEX 01 00:21:02
  TRACK 16 AUDIO
    TITLE "0:"
    INDEX 01 00:22:17
  TRACK 17 AUDIO
    TITLE "14:cjc041_0803"
    INDEX 01 00:22:64
  TRACK 18 AUDIO
    TITLE "0:"
    INDEX 01 00:25:48
  TRACK 19 AUDIO
    TITLE "12:cjc041_0804"
    INDEX 01 00:26:26
  TRACK 20 AUDIO
    TITLE "0:"
    INDEX 01 00:27:67
  TRACK 21 AUDIO
    TITLE "13:cjc041_0805"
    INDEX 01 00:28:53
  TRACK 22 AUDIO
    TITLE "0:"
    INDEX 01 00:31:65
  TRACK 23 AUDIO
    TITLE "14:cjc041_0806"
    INDEX 01 00:32:41
  TRACK 24 AUDIO
    TITLE "0:"
    INDEX 01 00:36:68
  TRACK 25 AUDIO
    TITLE "12:cjc041_0807"
    INDEX 01 00:37:50
  TRACK 26 AUDIO
    TITLE "0:"
    INDEX 01 00:39:54
  TRACK 27 AUDIO
    TITLE "13:cjc041_0808"
    INDEX 01 00:40:36
  TRACK 28 AUDIO
    TITLE "0:"
    INDEX 01 00:42:47
  TRACK 29 AUDIO
    TITLE "14:cjc041_0809"
    INDEX 01 00:43:25
  TRACK 30 AUDIO
    TITLE "0:"
    INDEX 01 00:46:64
  TRACK 31 AUDIO
    TITLE "12:cjc041_0810"
    INDEX 01 00:47:48
  TRACK 32 AUDIO
    TITLE "0:"
    INDEX 01 00:49:18
  TRACK 33 AUDIO
    TITLE "13:cjc041_0811"
    INDEX 01 00:49:67
  TRACK 34 AUDIO
    TITLE "0:"
    INDEX 01 00:51:34
  TRACK 35 AUDIO
    TITLE "14:cjc041_0812"
    INDEX 01 00:52:06
  TRACK 36 AUDIO
    TITLE "0:"
    INDEX 01 00:55:03
  TRACK 37 AUDIO
    TITLE "12:cjc041_0813"
    INDEX 01 00:55:57
  TRACK 38 AUDIO
    TITLE "0:"
    INDEX 01 00:57:11
  TRACK 39 AUDIO
    TITLE "13:cjc041_0814"
    INDEX 01 00:57:68
  TRACK 40 AUDIO
    TITLE "0:"
    INDEX 01 01:00:04
  TRACK 41 AUDIO
    TITLE "14:cjc041_0815"
    INDEX 01 01:00:55
  TRACK 42 AUDIO
    TITLE "0:"
    INDEX 01 01:03:04
  TRACK 43 AUDIO
    TITLE "12:cjc041_0816"
    INDEX 01 01:03:59
  TRACK 44 AUDIO
    TITLE "0:"
    INDEX 01 01:05:03
  TRACK 45 AUDIO
    TITLE "13:cjc041_0817"
    INDEX 01 01:05:62
  TRACK 46 AUDIO
    TITLE "0:"
    INDEX 01 01:07:21
  TRACK 47 AUDIO
    TITLE "14:cjc041_0818"
    INDEX 01 01:08:03
  TRACK 48 AUDIO
    TITLE "0:"
    INDEX 01 01:11:31
  TRACK 49 AUDIO
    TITLE "12:cjc041_0819"
    INDEX 01 01:12:11
  TRACK 50 AUDIO
    TITLE "0:"
    INDEX 01 01:13:49
  TRACK 51 AUDIO
    TITLE "13:cjc041_0820"
    INDEX 01 01:14:25
  TRACK 52 AUDIO
    TITLE "0:"
    INDEX 01 01:16:65
  TRACK 53 AUDIO
    TITLE "14:cjc041_0821"
    INDEX 01 01:17:39
  TRACK 54 AUDIO
    TITLE "0:"
    INDEX 01 01:20:22
  TRACK 55 AUDIO
    TITLE "12:cjc041_0822"
    INDEX 01 01:20:73
  TRACK 56 AUDIO
    TITLE "0:"
    INDEX 01 01:22:42
  TRACK 57 AUDIO
    TITLE "13:cjc041_0823"
    INDEX 01 01:23:20
  TRACK 58 AUDIO
    TITLE "0:"
    INDEX 01 01:24:73
  TRACK 59 AUDIO
    TITLE "14:cjc041_0824"
    INDEX 01 01:25:55
  TRACK 60 AUDIO
    TITLE "0:"
    INDEX 01 01:29:45
  TRACK 61 AUDIO
    TITLE "12:cjc041_0825"
    INDEX 01 01:30:26
  TRACK 62 AUDIO
    TITLE "0:"
    INDEX 01 01:31:59
  TRACK 63 AUDIO
    TITLE "13:cjc041_0826"
    INDEX 01 01:32:41
  TRACK 64 AUDIO
    TITLE "0:"
    INDEX 01 01:33:60
  TRACK 65 AUDIO
    TITLE "14:cjc041_0827"
    INDEX 01 01:34:36
  TRACK 66 AUDIO
    TITLE "0:"
    INDEX 01 01:37:26
  TRACK 67 AUDIO
    TITLE "12:cjc041_0828"
    INDEX 01 01:38:06
  TRACK 68 AUDIO
    TITLE "0:"
    INDEX 01 01:39:72
  TRACK 69 AUDIO
    TITLE "13:cjc041_0829"
    INDEX 01 01:40:54
  TRACK 70 AUDIO
    TITLE "0:"
    INDEX 01 01:43:21
  TRACK 71 AUDIO
    TITLE "14:cjc041_0830"
    INDEX 01 01:44:01
  TRACK 72 AUDIO
    TITLE "0:"
    INDEX 01 01:47:07
  TRACK 73 AUDIO
    TITLE "12:cjc041_0831"
    INDEX 01 01:47:68
  TRACK 74 AUDIO
    TITLE "0:"
    INDEX 01 01:49:61
  TRACK 75 AUDIO
    TITLE "13:cjc041_0832"
    INDEX 01 01:50:39
  TRACK 76 AUDIO
    TITLE "0:"
    INDEX 01 01:52:20
  TRACK 77 AUDIO
    TITLE "14:cjc041_0833"
    INDEX 01 01:52:69
  TRACK 78 AUDIO
    TITLE "0:"
    INDEX 01 01:55:62
  TRACK 79 AUDIO
    TITLE "12:cjc041_0834"
    INDEX 01 01:56:39
  TRACK 80 AUDIO
    TITLE "0:"
    INDEX 01 01:58:32
  TRACK 81 AUDIO
    TITLE "13:cjc041_0835"
    INDEX 01 01:59:16
  TRACK 82 AUDIO
    TITLE "0:"
    INDEX 01 02:01:52
  TRACK 83 AUDIO
    TITLE "14:cjc041_0836"
    INDEX 01 02:02:30
  TRACK 84 AUDIO
    TITLE "0:"
    INDEX 01 02:06:32
  TRACK 85 AUDIO
    TITLE "12:cjc041_0837"
    INDEX 01 02:07:20
  TRACK 86 AUDIO
    TITLE "0:"
    INDEX 01 02:08:66
  TRACK 87 AUDIO
    TITLE "13:cjc041_0838"
    INDEX 01 02:09:52
  TRACK 88 AUDIO
    TITLE "0:"
    INDEX 01 02:11:21
  TRACK 89 AUDIO
    TITLE "14:cjc041_0839"
    INDEX 01 02:12:01
  TRACK 90 AUDIO
    TITLE "0:"
    INDEX 01 02:16:07
  TRACK 91 AUDIO
    TITLE "12:cjc041_0840"
    INDEX 01 02:16:66
  TRACK 92 AUDIO
    TITLE "0:"
    INDEX 01 02:19:11
  TRACK 93 AUDIO
    TITLE "13:cjc041_0841"
    INDEX 01 02:19:68
  TRACK 94 AUDIO
    TITLE "0:"
    INDEX 01 02:21:63
  TRACK 95 AUDIO
    TITLE "14:cjc041_0842"
    INDEX 01 02:22:45
  TRACK 96 AUDIO
    TITLE "0:"
    INDEX 01 02:27:16
